<?xml version="1.0" encoding="utf-8"?>
<!-- Generator: Adobe Illustrator 24.2.1, SVG Export Plug-In . SVG Version: 6.00 Build 0)  -->
<svg version="1.1" id="Layer_1" xmlns="http://www.w3.org/2000/svg" xmlns:xlink="http://www.w3.org/1999/xlink" x="0px" y="0px"
	 viewBox="0 0 737 737" style="enable-background:new 0 0 737 737;" xml:space="preserve">
<g>
	<g>
		<path d="M736.8,368.6c0,58.7-0.1,117.4,0.2,176.1c0,6.6-1.9,10.5-8.8,13.9c-116.8,58.4-233.6,116.9-350.1,175.7
			c-7.1,3.6-12,3.6-19.1,0c-116.3-58.6-232.7-117-349.2-175.2c-7-3.5-9.7-7.1-9.7-14.4c0.3-117.4,0.3-234.8,0-352.2
			c0-7.2,2.7-10.8,9.7-14.4C126.5,119.8,243.3,61.2,359.9,2.4c6.4-3.2,10.8-3.2,17.2,0C494,61.3,611,120.1,728.2,178.6
			c6.9,3.4,8.9,7.3,8.8,13.9C736.7,251.2,736.8,309.9,736.8,368.6z M25.6,368.6c0,54.4,0.1,108.7-0.2,163.1c0,6.6,1.8,10.4,8.8,13.9
			C143,600,251.6,654.6,360.2,709.5c6.5,3.3,11,2.8,17.2-0.3c108.3-54.6,216.6-109.1,325-163.4c6.6-3.3,9.4-6.7,9.3-13.6
			c-0.3-109-0.3-218.1-0.1-327.1c0-6.2-1.7-9.8-8.3-13.2c-109.1-54.6-218-109.4-326.9-164.4c-6.1-3.1-10.4-2.7-16.2,0.2
			C251.6,82.5,143,137.2,34.2,191.6c-6.9,3.5-8.8,7.3-8.8,13.9C25.8,259.9,25.6,314.2,25.6,368.6z"/>
		<path d="M656,452.7c0,3.6,0,6.4,0,9.8c-38.6,0-77,0-116.3,0c0-3,0-6.1,0-9.5c1-0.3,2-0.7,3-0.8c24.9-1.7,30.9-5.4,31.4-26.6
			c1-45.6,0.3-91.2-1.3-137.4c-1.4,2.5-2.9,5-4.1,7.6c-25.3,54-50.7,107.9-75.5,162c-3.1,6.8-7.3,8.5-14.9,8.3
			c-7.5-0.2-12.7-0.5-16.3-8.1c-25.5-53.9-51.6-107.6-77.6-161.3c-1.3-2.7-2.8-5.4-4.3-8.3c-1.1,0.9-1.9,1.3-1.9,1.6
			c-0.1,43.2-0.9,86.5,0.2,129.7c0.8,31.2,7,29.9,34.8,33.4c0.1,2.9,0.3,5.9,0.5,9.5c-31.9,0-63.3,0-95.4,0c0-3.2,0-6.4,0-9.3
			c0.7-0.5,0.9-0.9,1.2-0.9c27.4-1.3,33.8-5.7,34.1-33.3c0.5-40.2,0.1-80.3,0.1-120.5c0-2.2-0.1-4.3-0.3-6.5
			c-2-21.1-6.9-25.6-31.6-27.9c0-3.1,0-6.3,0-10.5c21.3,0,42.5,0,63.7,0c29.9,0,29.9,0,40.8,23.8c19.2,41.8,38.4,83.6,57.6,125.4
			c1.3,2.8,2.8,5.5,5,9.9c2.3-4.7,3.9-8,5.4-11.2c21.3-46.7,42.7-93.4,63.7-140.2c2.6-5.9,5.9-7.9,13.1-7.7
			c26.6,0.4,53.2,0.1,80.9,0.1c0.2,3.6,0.4,6.8,0.6,10.4c-3.9,0.4-7,0.6-10,1c-12.7,1.8-18.4,7-20.4,18.2c-0.3,1.8-0.6,3.7-0.7,5.5
			c-0.1,46-0.9,92,0.1,138c0.4,20,6.4,23.6,29.4,25.1C652.3,452.2,653.7,452.4,656,452.7z"/>
		<path d="M87.1,264.2c0-3.5,0-6.5,0-9.9c35.5,0,70.5,0,106.3,0c0,3.2,0,6.4,0,9.5c-0.6,0.3-1.2,0.8-1.8,0.8
			c-24.7,1.9-29.4,6-29.6,27.6c-0.2,40.5-0.3,80.9,0,121.4c0.1,23,7.8,31.3,33.7,33.2c17.5,1.3,35.4,0.7,53-0.8
			c16.7-1.5,28.7-10.1,34.9-24c2.8-6.3,5-12.8,7.6-19.8c3.3,0,7,0,11.9,0c-1.7,20.3-3.3,40.2-5,60.5c-71.9,0-143,0-214.6,0
			c0-3.4,0-6.4,0-9.2c0.8-0.5,1.3-1,1.9-1.1c26.2-2.5,29.9-5.8,30-29.1c0.2-43.2,0.1-86.5,0.1-129.7c0-0.3,0-0.6,0-0.9
			C115.1,270.4,112.6,267.9,87.1,264.2z"/>
	</g>
</g>
</svg>
